# xmcd
#
# Track frame offsets: 
#        150
#        17405
#        37117
#        53166
#        74084
#        96795
#        110272
#        129623
#        147416
#        172544
#        186043
#        202058
#
# Disc length: 2878 seconds
#
# Revision: 1
# Processed by: cddbd v1.5.2PL0 Copyright (c) Steve Scherf et al.
# Submitted via: ExactAudioCopy v1.0b1
#
DISCID=a80b3c0c
DTITLE=Shirley Brown - Shirley Brown
DYEAR=2007
DGENRE=Soul
TTITLE0=Blessed Is The Woman (With A Man Like Mine)
TTITLE1=When You Really Love Somebody
TTITLE2=Said I Was'nt Gonna Give You No More Love
TTITLE3=I Nedd Somebody To Love Me
TTITLE4=Givin' Up
TTITLE5=Long On Lovin'
TTITLE6=Midnight Rendezvous
TTITLE7=I'll Be right Here Lovin' You
TTITLE8=A Mighty Good Feeling
TTITLE9=London, Dirty, Good Lover
TTITLE10=Honey Babe
TTITLE11=I Can't Move No Mountains
EXTD=
EXTT0=
EXTT1=
EXTT2=
EXTT3=
EXTT4=
EXTT5=
EXTT6=
EXTT7=
EXTT8=
EXTT9=
EXTT10=
EXTT11=
PLAYORDER=
